<svg width="43" height="43" viewBox="0 0 43 43" fill="none" xmlns="http://www.w3.org/2000/svg">
<rect width="43" height="43" rx="21.5" fill="white"/>
<path d="M16.3295 33.8193C16.359 34.0176 16.4167 34.2928 16.5386 34.6038C16.644 34.8728 16.7596 35.1678 17.0315 35.4631C17.3704 35.8311 17.7511 35.9811 17.8679 36.0235C18.443 36.2321 18.9387 36.1242 19.1151 36.0832C19.6577 35.9574 20.0012 35.6687 20.1532 35.5378C20.1532 35.5378 20.6051 35.1487 20.8851 34.5142C20.9985 34.2571 21.0568 33.9986 21.0568 33.9986C21.0796 33.8977 21.0932 33.8106 21.1017 33.7446V27.3786C21.0973 27.3116 21.0966 27.2391 21.1017 27.1619C21.1101 27.034 21.1315 26.7552 21.3033 26.4671C21.3718 26.3521 21.5508 26.0616 21.9146 25.92C22.0968 25.8491 22.2609 25.8406 22.3641 25.8435H25.8418C25.8514 25.8437 25.8657 25.8439 25.883 25.8435C26.2963 25.8347 26.5999 25.5598 26.822 25.3532C27.0559 25.1356 27.2973 24.9111 27.4175 24.5211C27.5003 24.2528 27.4875 24.0301 27.4792 23.9048C27.4421 23.3493 27.1698 22.9689 27.1095 22.8877C26.7279 22.3741 26.2018 22.2195 26.0416 22.1789H21.4313C21.4305 22.1582 21.4299 22.1281 21.4313 22.0919C21.4347 22.0006 21.4549 21.7506 21.6787 21.3879C21.8171 21.1637 22.0334 20.8131 22.4745 20.6051C22.6618 20.5167 22.8313 20.4816 22.944 20.4659H27.8735C27.9023 20.467 27.9461 20.468 27.9993 20.4659C28.62 20.4415 29.0639 20.0598 29.2006 19.9389C29.6079 19.5787 29.764 19.1698 29.793 19.091C29.9158 18.757 29.9207 18.4613 29.9246 18.2184C29.9268 18.0901 29.9292 17.879 29.8835 17.634C29.7783 17.0699 29.4848 16.6845 29.3652 16.531C28.8902 15.9214 28.2888 15.6761 27.9829 15.5514C27.5479 15.374 27.1219 15.2984 26.831 15.2468C26.5808 15.2024 26.3683 15.1783 26.2139 15.1645C26.2572 15.1378 26.3202 15.0984 26.3949 15.0492C27.2121 14.5126 27.7267 13.9473 27.8595 13.798C28.0556 13.5776 28.5444 12.9999 28.962 12.127C29.1533 11.7272 29.3922 11.2182 29.5133 10.4971C29.5533 10.2588 29.6657 9.48874 29.4639 8.54623C29.3113 7.83391 29.0947 7.56188 28.9867 7.44318C28.8785 7.32431 28.6193 7.03936 28.2133 6.98221C28.0287 6.95623 27.7814 6.97277 27.3411 7.2127C26.9032 7.45134 26.5233 7.77539 26.0165 8.38983C25.7675 8.69159 25.3596 9.21903 24.9139 9.995C24.4208 10.8537 24.1518 11.5405 24.0912 11.699C23.8367 12.3643 23.7027 12.9065 23.614 13.2712C23.5082 13.7056 23.4382 14.0781 23.3918 14.3578L23.3753 14.4546C23.3597 14.4348 23.3354 14.4043 23.3052 14.3675C23.2108 14.2521 23.1372 14.1707 23.1217 14.1533C22.9867 14.002 22.8341 13.7548 22.787 13.6806C22.671 13.4979 22.6008 13.4287 22.1894 12.945C21.5108 12.1471 21.5964 12.2117 21.2358 11.8076C21.0798 11.6329 20.8187 11.3461 20.4804 11.0041C20.3494 10.8716 20.0754 10.5981 19.725 10.2764C18.912 9.53018 18.2102 9.0049 18.0344 8.87445C17.0714 8.15969 16.4316 7.81619 16.1979 7.69444C16.0512 7.61808 15.5955 7.38475 14.9622 7.24773C14.384 7.1226 14.1343 7.18091 13.9766 7.24211C13.6527 7.36775 13.4618 7.60429 13.4065 7.67759C13.2552 7.87801 13.1998 8.07313 13.1566 8.22545C13.0947 8.4435 13.0847 8.61641 13.0779 8.74802C13.0616 9.06438 13.1019 9.30392 13.1397 9.52064C13.1622 9.64951 13.2118 9.90064 13.3166 10.209C13.4141 10.4957 13.5127 10.6945 13.6368 10.9423C13.7323 11.133 13.8835 11.4328 14.1226 11.7992C14.4355 12.2786 14.7254 12.6062 14.9679 12.878C15.2529 13.1976 15.4908 13.4268 15.6334 13.5636C15.7664 13.6911 15.994 13.9086 16.3074 14.1676C16.3958 14.2407 16.7215 14.5075 17.2228 14.8475C17.7965 15.2366 18.2967 15.5758 19.0201 15.859C19.2985 15.9679 19.5353 16.0394 19.6969 16.0837C19.7104 16.0869 19.7305 16.0936 19.7502 16.109C19.7767 16.1297 19.8083 16.1681 19.8036 16.2073C19.7996 16.2405 19.7713 16.2625 19.7587 16.272C19.6388 16.3622 19.2641 16.5996 19.1324 16.6962C19.1004 16.7197 19.0371 16.7802 18.9106 16.9013C18.6347 17.1652 18.4343 17.3818 18.3826 17.4379C18.1499 17.6908 17.9156 17.9453 17.6497 18.3201C17.4342 18.6239 17.2969 18.8671 17.265 18.9242C17.0458 19.3158 16.924 19.6325 16.8269 19.8878C16.6609 20.3245 16.5674 20.677 16.5236 20.8543C16.4724 21.0616 16.4077 21.3277 16.3692 21.6887C16.3517 21.8522 16.3444 21.9909 16.3411 22.0933V32.7688L16.3295 33.8193Z" fill="black"/>
</svg>
